<svg width="117" height="131" viewBox="0 0 117 131" fill="none" xmlns="http://www.w3.org/2000/svg">
<path d="M58.4964 0.00585181C51.0088 0.0185727 12.541 21.1785 4.85386 31.6318C4.84542 31.6432 4.83703 31.6547 4.82868 31.6661C4.71176 31.8264 4.60317 31.9842 4.50316 32.1395C4.49723 32.1487 4.49134 32.1578 4.48548 32.167C3.80546 33.2315 3.53133 34.1758 3.75108 34.9637H39.9488L58.4964 0.0185724V0.00585181Z" fill="#31A2F2"/>
<path d="M112.515 32.167C105.959 21.9047 65.7645 0.00687211 58.5036 0.00585181V0.0185724L77.0512 34.9637H113.249C113.469 34.1758 113.195 33.2315 112.515 32.167Z" fill="#5F47DB"/>
<path d="M58.4964 130.984C58.4089 131.02 58.5149 130.977 58.4964 130.984C63.1051 128.207 110.941 43.2386 113.249 34.9637H77.0512L58.4964 130.984Z" fill="#4C33D5"/>
<path d="M3.75108 34.9637C5.50594 41.2563 33.492 91.8593 48.8264 116.964C53.6572 124.873 57.3923 130.319 58.4964 130.984C58.4778 130.977 58.5838 131.02 58.4964 130.984L39.9488 34.9637H3.75108Z" fill="#1A97F1"/>
<path d="M112.515 32.167C113.195 33.2315 113.469 34.1758 113.249 34.9637C110.941 43.2386 63.1051 128.207 58.4964 130.984C61.6223 129.713 107.757 110.833 113.249 101.153C118.935 91.131 116.595 42.8877 116.127 40.5572C115.659 38.2266 114.713 35.1226 112.515 32.167Z" fill="#6500C8"/>
<path d="M0.873204 40.5572C0.405255 42.8877 -1.93463 91.131 3.75108 101.153C9.24307 110.833 55.3705 129.713 58.4964 130.984C57.3923 130.319 53.6572 124.873 48.8264 116.964C33.492 91.8593 5.50594 41.2563 3.75108 34.9637C3.53133 34.1758 3.80546 33.2315 4.48548 32.167C2.28678 35.1226 1.34115 38.2266 0.873204 40.5572Z" fill="#00CBFE"/>
<path d="M58.4964 0.0185724L39.9488 34.9637H77.0512L58.5036 0.0185724L58.5 0.0117043L58.4964 0.0185724Z" fill="#4774E9"/>
<path d="M58.4964 130.984L77.0512 34.9637H39.9488L58.4964 130.984Z" fill="#3465E5"/>
</svg>
