<svg width="15" height="15" viewBox="0 0 15 15" fill="none" xmlns="http://www.w3.org/2000/svg">
<path d="M7.5 12.9452V2.05479C4.4927 2.05479 2.05479 4.4927 2.05479 7.5C2.05479 10.5073 4.4927 12.9452 7.5 12.9452Z" fill="#EE8700"/>
<path d="M7.5 2.05479V12.9452C10.5073 12.9452 12.9452 10.5073 12.9452 7.5C12.9452 4.4927 10.5073 2.05479 7.5 2.05479Z" fill="#CC7400"/>
<path fill-rule="evenodd" clip-rule="evenodd" d="M7.5 15C3.35786 15 0 11.6421 0 7.5C0 3.35786 3.35786 0 7.5 0V2.05479C4.4927 2.05479 2.05479 4.4927 2.05479 7.5C2.05479 10.5073 4.4927 12.9452 7.5 12.9452V15Z" fill="#FFDA44"/>
<path d="M7.5 15C11.6421 15 15 11.6421 15 7.5C15 3.35786 11.6421 0 7.5 0V2.05479C10.5073 2.05479 12.9452 4.4927 12.9452 7.5C12.9452 10.5073 10.5073 12.9452 7.5 12.9452V15Z" fill="#FFA733"/>
<path d="M7.51289 5.78564C5.98463 5.0716 4.72607 6.05341 4.72607 7.57076C4.72608 8.83965 5.80484 9.87138 7.51289 9.24659M6.36991 4.93152V5.34248M6.36991 9.65755V10.0685M10.1841 5.78564C8.65587 5.0716 7.3973 6.05341 7.39731 7.57076C7.39731 8.83965 8.47607 9.87138 10.1841 9.24659M9.04114 4.93152V5.34248M9.04114 9.65755V10.0685" stroke="#FFDA44" stroke-linecap="round"/>
<path d="M7.5 2.05481V12.9452C10.5073 12.9452 12.9452 10.5073 12.9452 7.50002C12.9452 4.49271 10.5073 2.05481 7.5 2.05481Z" fill="#CC7400" fill-opacity="0.53"/>
</svg>
