<svg width="194" height="218" viewBox="0 0 194 218" fill="none" xmlns="http://www.w3.org/2000/svg">
<path d="M96.994 0.00973812C84.5787 0.0309073 20.7945 35.2437 8.04827 52.6391C8.03429 52.6582 8.02037 52.6773 8.00652 52.6963C7.81267 52.963 7.6326 53.2256 7.46677 53.484C7.45695 53.4993 7.44718 53.5146 7.43746 53.5298C6.3099 55.3013 5.85537 56.8726 6.21974 58.1839H66.2398L96.994 0.0309067V0.00973812Z" fill="#31A2F2"/>
<path d="M186.563 53.5298C175.693 36.4521 109.045 0.011436 97.006 0.00973812V0.0309067L127.76 58.1839H187.78C188.145 56.8726 187.69 55.3013 186.563 53.5298Z" fill="#5F47DB"/>
<path d="M96.994 217.974C96.849 218.033 97.0248 217.961 96.994 217.974C104.636 213.352 183.954 71.9544 187.78 58.1839H127.76L96.994 217.974Z" fill="#4C33D5"/>
<path d="M6.21974 58.1839C9.12951 68.6556 55.5337 152.865 80.9601 194.643C88.97 207.804 95.1633 216.866 96.994 217.974C96.9632 217.961 97.1389 218.033 96.994 217.974L66.2398 58.1839H6.21974Z" fill="#1A97F1"/>
<path d="M186.563 53.5298C187.69 55.3013 188.145 56.8726 187.78 58.1839C183.954 71.9544 104.636 213.352 96.994 217.974C102.177 215.859 178.674 184.439 187.78 168.33C197.208 151.653 193.328 71.3704 192.552 67.4921C191.776 63.6137 190.208 58.4483 186.563 53.5298Z" fill="#6500C8"/>
<path d="M1.44788 67.4921C0.671962 71.3704 -3.20785 151.653 6.21974 168.33C15.3261 184.439 91.8108 215.859 96.994 217.974C95.1633 216.866 88.97 207.804 80.9601 194.643C55.5337 152.865 9.12951 68.6556 6.21974 58.1839C5.85537 56.8726 6.3099 55.3013 7.43746 53.5298C3.79175 58.4483 2.22379 63.6137 1.44788 67.4921Z" fill="#00CBFE"/>
<path d="M96.994 0.0309067L66.2398 58.1839H127.76L97.006 0.0309067L97 0.0194774L96.994 0.0309067Z" fill="#4774E9"/>
<path d="M96.994 217.974L127.76 58.1839H66.2398L96.994 217.974Z" fill="#3465E5"/>
</svg>
